<?xml version="1.0" encoding="UTF-8"?>
<!DOCTYPE svg PUBLIC "-//W3C//DTD SVG 1.1//EN" "http://www.w3.org/Graphics/SVG/1.1/DTD/svg11.dtd">
<!-- Creator: CorelDRAW 2020 (64-Bit) -->
<svg xmlns="http://www.w3.org/2000/svg" xml:space="preserve" width="298.185mm" height="531.283mm" version="1.1" style="shape-rendering:geometricPrecision; text-rendering:geometricPrecision; image-rendering:optimizeQuality; fill-rule:evenodd; clip-rule:evenodd"
viewBox="0 0 29818.54 53128.32"
 xmlns:xlink="http://www.w3.org/1999/xlink"
 xmlns:xodm="http://www.corel.com/coreldraw/odm/2003">
 <defs>
  <style type="text/css">
   <![CDATA[
    .fil0 {fill:#16A34A}
   ]]>
  </style>
 </defs>
 <g id="Capa_x0020_1">
  <metadata id="CorelCorpID_0Corel-Layer"/>
  <g id="_1579201303904">
   <path class="fil0" d="M21218.51 21406.9c102.85,80.17 179.84,136.43 257.94,194.98l35.03 19.8 33.81 20.01 32.08 22.11 58.2 72.31 32.21 24.21 31.2 17.95 31.64 22.69 31.19 22.74 82.1 105.93 81.69 74.24 28.89 26.59 26.47 27.15 76.48 80.86 192 210.11 20.46 29.34c31.23,33.06 47.63,51.27 96.43,92.67l16.8 35.02 15.27 40.78 87.23 94.15 46.41 35.26 17.77 34.07 15.84 36.63 44.67 35.72 15.99 41.66 38.02 38.67 9.72 44.79 40.77 37.98 14.06 39.81 37.32 40.71 8.18 48.57 84.74 124.11 31.06 52.65c-1.58,74.67 184.46,397.2 233.1,493.69 128.46,254.86 225.52,525.64 324.06,787.19l317.21 1190.91c21.91,125.81 45.22,209.96 60.26,310.15l83.21 684.09c11.27,186.87 96.24,1158.95 36.97,1333.45 -37.79,111.27 -6.09,24.39 -36.98,68.85 0,-164.65 -80.15,-573.77 -110.22,-789.36 -75.2,-539.13 -251.89,-1313.01 -397.76,-1851.2 -213.17,-786.49 -523.88,-1531.27 -911.64,-2236.9 -56.06,-102.01 -287.87,-512.04 -353.09,-546.63 -63.18,0 -50.22,17.43 -50.22,-40.46l-11.44 -35.73 -42.69 -35.72 -17.65 -39.35 -51.89 -78.36 -13.23 -41.3 -18.97 -28.76 -84.82 -72.91 -20.57 -34.96 -17.77 -40.26 -59.75 -66.73 -23.39 -28.95 -19.04 -35.6 -67.56 -63.77 -21.79 -32.79 -17.64 -31.64 -43.53 -33.54 -26.46 -28.3 -23.84 -29.41 -21.91 -32.54 -16.04 -35.67 -25.31 -26.83 -25.11 -27.61 -46.54 -31.31 -26.46 -26.46 -26.45 -29.14 -22.17 -30.05 -17.72 -33.98 -28.42 -26.03 -23.97 -27.66 -24.85 -26.35 -24.23 -31.63 -25.88 -28.5 -196.07 -229.74 266.59 153.53zm-6121.12 5994.13l-105.83 -132.66c-199.5,4.34 -389.2,60.89 -525.53,168.24 -228.02,179.58 -24.76,226.57 19.58,427.28 88.01,398.43 -410.67,586.54 -684.68,674.72 -105.45,-34.4 -474.59,32.55 -788.81,-53.64 -644.37,-176.75 -1085.42,-727.35 -1332,-1340.28 -139.82,-347.54 -296.65,-1021.06 -175.28,-1532.95 160.3,-676.08 1955.83,-2037.18 3628.18,-1232.04 306.38,147.51 530.12,332.41 780.87,542.05l99.46 85.75c3.85,3.84 9.33,9.43 13.09,13.37 530.6,555.07 892.58,1237.46 1176.6,1945.48 27.31,68.08 40.93,115.64 64.13,173.99 23.47,59.06 32.92,91.53 52.91,158.76 23.51,79.13 33.6,91.04 63.14,174.98 284.71,808.89 532.28,2095.15 596.57,2948.84 89.1,1183.15 149.16,2224.76 56.48,3413.58 -43.22,554.32 -192.55,2146.08 -526.96,2595.12 -64.72,86.91 -131.14,163.55 -209.15,240.65 -166.16,164.23 -280.03,284.41 -464.74,434.84 -108.96,88.73 -458.54,270.44 -494.49,405.09 76.35,6.35 139.51,28.89 222.38,42.2 82.85,13.3 197.52,26.91 257.65,33.39 492,52.96 1153.15,-16.74 1581.88,-103.89 277.49,-56.41 595.94,-166.69 844.74,-266.5 131.57,-52.79 250.24,-104.01 387.82,-167.81 571.14,-264.84 1069.89,-593.16 1562.33,-977.67l302.58 -253.05c64.5,-49.38 91.79,-77.74 152.09,-138.95l149.53 -141.51c4,-3.69 9.67,-9.09 13.67,-12.79l254.28 -248.43c238.15,-238.72 436.98,-519.21 639.97,-788.77 490.3,-651.06 898.15,-1422.69 1175.06,-2185.14 48.75,-134.22 101.16,-290.46 155.57,-426.53 279.75,-699.59 422.06,-1484.6 580.3,-2224.27 193.15,-902.85 233.71,-2969.7 119.21,-3767.26 -88.9,-619.26 -212.04,-1268.05 -405.1,-1843.85 -141.89,-423.2 -304.76,-777.3 -514.41,-1152.46l-714.02 -979.31c-158.46,-189.71 -409.54,-379.88 -611.85,-525.86 -1419.77,-1024.45 -2914.76,-1424.11 -4774.6,-801.61 -418.61,140.11 -824.32,309.45 -1229.34,490.44 -253.41,113.24 -550.93,265.88 -811.2,326.52 0,-409.47 39.88,-3767.48 -19.18,-4002.48 -205.23,-816.58 -1278.19,-790.75 -1504.94,-8.73 -87.86,303 -36.92,940.24 -36.92,1312.46 0,899.58 0,1799.16 0,2698.75l-2100.14 -836.73c-1596.37,-536.58 -3235.96,-274.49 -4586.38,738.33 -606.57,454.94 -1035.96,879.88 -1425.11,1538.22 -561.18,949.37 -897.82,2262.52 -988.56,3429.97 -35.84,461.04 -29.52,958.99 -28.84,1454.65 0.22,153.09 24.35,180.41 28.22,315.74 27.19,950.23 188.75,1986.91 452.01,2881.74 125.16,425.39 350.86,1302.76 579.01,1643.48 1118.26,-748.82 2540.05,-1084.81 3915.84,-1084.81l710.51 30.34c1296.99,142.71 2553.69,428.28 3749.93,906.73 218.95,87.57 577.12,286.08 778.3,332.95 -22.96,-85.98 -321.23,-375.13 -408.61,-490.97 -786.86,-1043.24 -523.7,-1986.17 -101.71,-3114.97 175.45,-469.32 590.61,-1267.03 404.49,-1742.73z"/>
   <path class="fil0" d="M16205.68 19626.38l-20.19 461.25 499.4 -11.33c378.36,146.15 1587.8,-358.15 2005.51,-640.45 386.41,-261.14 573.84,-390.76 898.62,-741.79 243.9,-263.62 494.24,-637.12 666.42,-947.54 77.96,-140.56 105.66,-220.88 171.1,-384.53 108.4,-271.08 206.52,-539.98 253.76,-831.02 23.61,-145.49 54.54,-319.84 72.29,-456.88 20.62,-159.21 6.88,-381.75 6.88,-548.75 -643.89,0 -380.59,-26.96 -1009.42,75.38 -708.41,115.29 -1662.02,592.29 -2159.2,1095.17 -383.24,387.64 -684.43,723.52 -941.65,1227.93 -156.54,306.96 -563.2,1355.5 -443.52,1702.56z"/>
   <path class="fil0" d="M7106.84 32776.16l-79.24 83.3c104.3,18.22 689.18,-179.95 799.17,-210.17l893.4 -164.94c1184.27,-99.35 919.41,-86.27 2011.56,-52.11 357.97,11.2 1477.03,178.84 1826.23,263.98 284.54,69.38 567.71,122.19 862.12,196.2 159.92,40.21 738.59,198.6 857.1,201.24l-158.59 -105.99c-63.85,-29.1 -133.43,-57.19 -204.1,-86.94l-811.41 -299.84c-78.87,-26.11 -124.64,-45.09 -198.12,-66.46 -73.39,-21.35 -146.39,-31.04 -232.08,-58.97 -550.86,-179.49 -1543.06,-372.79 -2126.84,-386.7 -131.16,-3.13 -131.99,-23.91 -263.2,-27.84 -173.34,-5.18 -384.02,-5.18 -557.36,0l-998.05 113.2c-313.02,62.81 -1508.55,390.77 -1620.59,602.04z"/>
   <path class="fil0" d="M21218.51 21406.9c23,68.13 0.48,28.1 43.62,71.46 3.85,3.87 48.75,34.17 62.74,43.81 87.39,60.2 62.02,70.99 151.58,79.71 -3.69,50.07 -12.63,39.47 35.03,19.8 -16.22,60.9 -22.28,47.41 33.81,20.01 -26.44,69.11 -31.71,55.29 32.08,22.11 -2.7,69.49 -33.06,36.91 2.31,79.25l55.89 -6.94c-4.1,45.93 -13.39,36.11 32.21,24.21 -12.82,52.36 -18.19,39.83 31.2,17.95 -18.82,61.69 -26.08,50.15 31.64,22.69 -26.34,67.67 -32.09,54.71 31.19,22.74 -2,80.19 -40.3,73.29 82.1,105.93 0.55,73.81 22.01,63.47 81.69,74.24 -2.64,40.63 -11.91,31.39 28.89,26.59 -5.9,40.38 -14.42,31.04 26.47,27.15 -6.56,76.59 14.59,66.73 76.48,80.86 19.62,84.35 8.62,52.63 69.21,115.7 52.44,54.59 62.52,64.56 122.79,94.41 -10.84,38.47 -18.77,29.51 20.46,29.34 23.08,106.26 12.27,80.04 96.43,92.67 -23.93,49.12 -36.4,41.97 16.8,35.02l15.27 40.78c31.77,88.61 17.99,57.11 87.23,94.15 -13.4,93.77 -18.71,39.82 46.41,35.26 -32.49,57.03 -47.23,51.96 17.77,34.07 -21.65,47.38 -33.98,39.55 15.84,36.63 -14.56,92.27 -19.05,39.55 44.67,35.72 -30.76,55.62 -46.11,47.62 15.99,41.66 -28.27,89 -27.4,41.34 38.02,38.67 -31.17,52.89 -48.06,44.58 9.72,44.79 -19.41,85.85 -20.92,36.46 40.77,37.98 -29.24,50.51 -42.72,41.99 14.06,39.81 -22.63,86.55 -22.75,37.77 37.32,40.71 -26.94,48.34 -38.93,35.53 8.18,48.57 19.57,104.15 12.71,81.16 84.74,124.11 -18.34,82.01 -19.08,32.78 31.06,52.65l-31.06 -52.65 -84.74 -124.11 -8.18 -48.57 -37.32 -40.71 -14.06 -39.81 -40.77 -37.98 -9.72 -44.79 -38.02 -38.67 -15.99 -41.66 -44.67 -35.72 -15.84 -36.63 -17.77 -34.07 -46.41 -35.26 -87.23 -94.15 -15.27 -40.78 -16.8 -35.02c-48.8,-41.4 -65.2,-59.61 -96.43,-92.67l-20.46 -29.34 -192 -210.11 -76.48 -80.86 -26.47 -27.15 -28.89 -26.59 -81.69 -74.24 -82.1 -105.93 -31.19 -22.74 -31.64 -22.69 -31.2 -17.95 -32.21 -24.21 -58.2 -72.31 -32.08 -22.11 -33.81 -20.01 -35.03 -19.8c-78.1,-58.55 -155.09,-114.81 -257.94,-194.98l-266.59 -153.53 196.07 229.74 25.88 28.5 24.23 31.63 24.85 26.35 23.97 27.66 28.42 26.03 17.72 33.98 22.17 30.05 26.45 29.14 26.46 26.46 46.54 31.31 25.11 27.61 25.31 26.83 16.04 35.67 21.91 32.54 23.84 29.41 26.46 28.3 43.53 33.54 17.64 31.64 21.79 32.79 67.56 63.77 19.04 35.6 23.39 28.95 59.75 66.73 17.77 40.26 20.57 34.96 84.82 72.91 18.97 28.76 13.23 41.3 51.89 78.36 17.65 39.35 42.69 35.72 11.44 35.73c0,57.89 -12.96,40.46 50.22,40.46 0,-69.89 17.22,-57.01 -50.22,-40.46 28.69,-46.83 42.61,-40.42 -11.44,-35.73 17.25,-89.86 21.97,-41 -42.69,-35.72 30.57,-57.17 46.1,-50.35 -17.65,-39.35l18.74 -59.54c-25.91,-20.22 -51.93,-14.11 -70.63,-18.82 18.72,-43.05 28.49,-31.79 -13.23,-41.3l-18.97 -28.76 -23.18 -49.01c-8.85,-102.66 1.29,-10.99 -61.64,-23.9 32.56,-62.58 48.35,-57.96 -20.57,-34.96 25.32,-52.17 38.21,-42.96 -17.77,-40.26l13.69 -54.34c-39.41,-31.72 -17.48,-5.04 -73.44,-12.39 24.4,-53.77 33.48,-45.21 -23.39,-28.95 19.4,-48.08 30.87,-39.73 -19.04,-35.6l9.44 -55.58c-41.46,-33.7 -13.85,-4.49 -77,-8.19 29,-57.29 40.72,-49.82 -21.79,-32.79 22.53,-48.1 34.16,-41.72 -17.64,-31.64 18.41,-98.39 22.16,-46.33 -43.53,-33.54 34.77,-69.71 44.62,-61.27 -26.46,-28.3 33.98,-65.76 45.5,-59.17 -23.84,-29.41 29.87,-60.46 43.22,-54.6 -21.91,-32.54 23.19,-50.73 37.75,-45.21 -16.04,-35.67 11.75,-43.96 19.73,-34.59 -25.31,-26.83 10.11,-43.02 18.58,-33.91 -25.11,-27.61 12.9,-97.53 19.02,-44.07 -46.54,-31.31 35.1,-70.38 43.92,-61.56 -26.46,-26.46 34.63,-69.43 44.92,-61.1 -26.45,-29.14 33.46,-63.67 46.2,-58.32 -22.17,-30.05 26.67,-56.3 43,-53.11 -17.72,-33.98 18.26,-53.54 25.71,-42.84 -28.42,-26.03 20.03,-51.74 29.19,-43.59 -23.97,-27.66 16.86,-50.44 25.83,-42.33 -24.85,-26.35 14.31,-49.13 25.1,-40.96 -24.23,-31.63 12.01,-44.59 20.14,-34.64 -25.88,-28.5 16.07,-102.34 13.05,-31.54 -18.11,-57.56l22.05 -30.87c8.71,0.11 13.62,12.58 16.12,18.4 13.31,30.89 26.88,-3.83 50.46,-6.18z"/>
   <path class="fil0" d="M13800.93 28538.61c274.01,-88.18 772.69,-276.29 684.68,-674.72 -44.34,-200.71 -247.6,-247.7 -19.58,-427.28 136.33,-107.35 326.03,-163.9 525.53,-168.24l105.83 132.66 -25.5 -77.16c-2.28,-6.55 -6.18,-14.25 -8.5,-20.93l-18.92 -56.57c-98.22,0 -160.4,-6.49 -249.98,14.78l-364.29 165.76c-26.12,20.23 -43.83,36.14 -62.09,66.83 -31.57,53.05 5.52,-17.1 -17.29,35.09l-14.18 82.88c1.27,10.53 4.79,16.32 6.64,20.74 1.76,4.22 5.03,14.46 7.34,19.48 2.18,4.78 5.8,12.83 8.39,17.92l83.41 131.1c73.97,171.34 -16.71,370.3 -163.14,480.36l-304.71 172.83c-206.21,61.52 -86.49,-24.28 -173.64,84.47z"/>
   <path class="fil0" d="M16684.89 20076.3l-499.4 11.33 20.19 -461.25c-74.06,32.76 -38.63,-50.99 -53.77,103.82l0.7 269.73c14.61,164.39 -10.61,51.92 43.93,88.02 35.51,53.44 -75.37,30.72 88.36,44.27l269.4 0.27c185.01,-5.89 89.66,5.58 130.59,-56.19z"/>
   <path class="fil0" d="M7027.6 32859.46l79.24 -83.3c-8.68,4.06 -21.07,0.09 -26.19,11.91 -35.62,82.18 2.11,-0.69 -48.08,21.06 -130.28,56.47 -112.63,33.53 -137.26,125.78 95.83,-22.33 70.4,2.23 132.29,-75.45z"/>
  </g>
 </g>
</svg>
